<svg fill="#ffffff" id="SVGRoot" width="128px" height="128px" version="1.1" viewBox="0 0 128 128" xmlns="http://www.w3.org/2000/svg">
 <path d="m63.703 0a64 64 0 0 0-63.703 64 64 64 0 0 0 64 64 64 64 0 0 0 64-64 64 64 0 0 0-64-64 64 64 0 0 0-0.29688 0zm0.29688 5.4062c15.395 0 30.395 7.4211 39.736 19.658l-6.7656 5.1641c-7.6576-10.03-20.352-16.309-32.971-16.309-12.62 0-25.314 6.278-32.971 16.309-3.6651 4.8011-6.1628 10.431-6.4414 16.027-0.13916 2.7932 0.27251 5.5918 1.252 8.0918 0.97587 2.4906 2.5506 4.7393 4.5234 6.377 1.8746 1.5561 4.2441 2.6807 6.7832 3.3027 1.5422 0.37783 3.173 0.52902 4.8301 0.57812l0.087891-36.961 8.5137 0.021485-0.085937 36.037c3.9361-0.878 7.946-2.2424 12.082-3.7129 4.6876-1.6666 9.6425-3.4187 14.953-4.3965l0.066406-27.928 8.5137 0.019531-0.064453 27.219c2.2712 0.050209 4.5565 0.24281 6.834 0.80078 3.6346 0.89036 7.1793 2.5159 10.195 5.0195 3.1827 2.6423 5.5452 6.0744 7.0137 9.8223 1.4649 3.7384 2.0203 7.7228 1.8262 11.621-0.38764 7.7876-3.71 14.917-8.1758 20.768-9.3412 12.237-24.342 19.66-39.736 19.66s-30.395-7.4231-39.736-19.66l6.7656-5.1641c7.6576 10.03 20.352 16.311 32.971 16.311 12.62 0 25.314-6.2799 32.971-16.311 3.6651-4.8011 6.1628-10.431 6.4414-16.027 0.13907-2.7936-0.2726-5.5902-1.252-8.0898-0.97578-2.4906-2.5526-4.7393-4.5254-6.377-1.8746-1.5561-4.2421-2.6806-6.7812-3.3027-1.5416-0.3777-3.1716-0.52894-4.8281-0.57812l-0.087891 36.959-8.5156-0.02149 0.085937-36.035c-3.9361 0.878-7.946 2.2424-12.082 3.7129-4.6876 1.6666-9.6444 3.4187-14.955 4.3965l-0.066406 27.926-8.5117-0.01953 0.064453-27.217c-2.2712-0.050208-4.5584-0.24281-6.8359-0.80078-3.6346-0.89036-7.1774-2.5159-10.193-5.0195-3.1827-2.6423-5.5452-6.0765-7.0137-9.8242-1.4646-3.7381-2.0224-7.7205-1.8281-11.619 0.38764-7.7876 3.7119-14.919 8.1777-20.77 9.3412-12.237 24.342-19.658 39.736-19.658z"/>
</svg>
