<svg id="SVGRoot" width="128" height="128" version="1.1" xmlns="http://www.w3.org/2000/svg"><path d="M64 0C47.185 0 30.801 8.107 20.598 21.473c-4.878 6.39-8.508 14.178-8.932 22.684-.212 4.258.397 8.61 1.996 12.693 1.604 4.093 4.184 7.843 7.66 10.729 3.295 2.735 7.166 4.51 11.136 5.482 2.487.61 4.984.82 7.464.875l-.07 29.73 9.299.02.072-30.503c5.8-1.068 11.214-2.98 16.334-4.8 4.518-1.607 8.898-3.099 13.197-4.058l-.093 39.361 9.3.024.096-40.37c1.81.055 3.59.22 5.273.632 2.774.68 5.361 1.907 7.409 3.607 2.154 1.789 3.875 4.245 4.941 6.965 1.07 2.73 1.52 5.787 1.367 8.838-.304 6.113-3.032 12.262-7.035 17.506-8.363 10.956-22.228 17.814-36.012 17.814-13.783 0-27.648-6.858-36.012-17.814l-7.39 5.64c10.202 13.366 26.586 21.473 43.401 21.473s33.2-8.106 43.402-21.473c4.878-6.39 8.509-14.178 8.932-22.684.212-4.257-.396-8.61-1.996-12.693-1.604-4.093-4.184-7.842-7.66-10.729-3.294-2.734-7.165-4.51-11.135-5.482-2.488-.61-4.984-.82-7.465-.875l.07-29.729-9.299-.021-.072 30.504c-5.8 1.068-11.214 2.98-16.334 4.8-4.517 1.607-8.898 3.098-13.197 4.057l.094-39.361-9.299-.023-.096 40.369c-1.81-.054-3.59-.219-5.275-.631-2.773-.68-5.36-1.908-7.408-3.608-2.155-1.788-3.876-4.244-4.942-6.965-1.07-2.73-1.519-5.787-1.367-8.837.305-6.113 3.032-12.262 7.035-17.506C36.351 16.158 50.215 9.3 64 9.3c13.783 0 27.648 6.858 36.012 17.814l7.391-5.641C97.199 8.107 80.815 0 64 0z" color="#000" fill="#f45d22" style="font-feature-settings:normal;font-variant-alternates:normal;font-variant-caps:normal;font-variant-east-asian:normal;font-variant-ligatures:normal;font-variant-numeric:normal;font-variant-position:normal;font-variation-settings:normal;inline-size:0;isolation:auto;mix-blend-mode:normal;shape-margin:0;shape-padding:0;text-decoration-color:#000;text-decoration-line:none;text-decoration-style:solid;text-indent:0;text-orientation:mixed;text-transform:none;white-space:normal"/></svg>