<?xml version="1.0" standalone="no"?>
<!DOCTYPE svg PUBLIC "-//W3C//DTD SVG 20010904//EN"
 "http://www.w3.org/TR/2001/REC-SVG-20010904/DTD/svg10.dtd">
<svg version="1.0" xmlns="http://www.w3.org/2000/svg"
 width="700.000000pt" height="700.000000pt" viewBox="0 0 700.000000 700.000000"
 preserveAspectRatio="xMidYMid meet">
<metadata>
Created by potrace 1.11, written by Peter Selinger 2001-2013
</metadata>
<g transform="translate(0.000000,700.000000) scale(0.100000,-0.100000)"
fill="#000000" stroke="none">
<path d="M3309 6996 c-2 -2 -44 -7 -93 -10 -49 -4 -92 -8 -95 -10 -3 -2 -29
-6 -57 -10 -301 -35 -751 -192 -1054 -367 -144 -83 -358 -235 -475 -338 -49
-43 -281 -276 -314 -316 -338 -404 -535 -843 -578 -1283 -36 -381 60 -771 263
-1070 265 -388 712 -619 1224 -633 l55 -1 -3 -814 -3 -814 255 0 256 0 1 823
c1 452 1 827 0 833 -1 7 16 15 36 18 181 32 411 103 1028 313 256 88 530 168
544 159 4 -3 6 -487 5 -1075 l-2 -1071 254 0 254 0 0 318 c1 419 8 1875 9
1884 1 4 20 6 44 3 23 -3 65 -7 92 -9 428 -40 758 -317 861 -724 110 -433 -25
-911 -384 -1367 -77 -97 -280 -297 -382 -376 -304 -235 -630 -394 -985 -479
-128 -31 -136 -33 -260 -52 -131 -20 -535 -16 -653 7 -9 1 -56 10 -103 19
-375 70 -768 249 -1079 489 -124 97 -261 227 -353 337 -39 47 -74 89 -78 94
-9 10 -409 -287 -409 -304 0 -12 229 -267 302 -335 114 -107 138 -128 252
-215 305 -231 678 -417 1026 -510 25 -7 52 -14 60 -16 48 -14 304 -64 353 -69
32 -4 68 -9 80 -12 39 -9 480 -11 548 -2 37 4 89 10 115 13 71 8 127 16 144
21 8 2 31 7 50 10 165 28 455 119 635 200 362 162 656 363 926 634 328 329
565 718 668 1099 77 280 92 495 55 777 -2 22 -14 80 -26 129 -153 657 -685
1098 -1377 1142 -47 3 -95 7 -105 8 -19 3 -20 19 -17 814 l2 812 -256 0 -255
0 0 -833 0 -833 -166 -38 c-164 -37 -403 -113 -884 -278 -206 -71 -528 -168
-558 -168 -5 0 -8 484 -6 1075 l2 1075 -254 0 -254 0 0 -347 c-1 -424 -7
-1834 -9 -1849 -1 -7 -20 -10 -53 -8 -45 3 -152 15 -168 19 -3 0 -23 4 -45 9
-121 24 -294 103 -396 181 -311 240 -444 680 -338 1125 80 337 267 657 549
941 314 316 675 529 1115 658 82 23 291 66 385 78 123 15 485 9 610 -10 159
-25 403 -87 495 -126 11 -5 52 -21 90 -36 190 -76 425 -210 596 -341 119 -92
324 -288 389 -374 25 -32 50 -61 56 -64 8 -3 365 262 401 298 18 18 -307 361
-457 482 -94 76 -231 174 -335 240 -346 220 -795 380 -1200 429 -27 4 -61 9
-75 11 -29 6 -485 15 -491 10z"/>
</g>
</svg>
