<svg version="1" xmlns="http://www.w3.org/2000/svg" width="933.333" height="933.333" viewBox="0 0 700.000000 700.000000"><path d="M330.9.4c-.2.2-4.4.7-9.3 1-4.9.4-9.2.8-9.5 1-.3.2-2.9.6-5.7 1-30.1 3.5-75.1 19.2-105.4 36.7-14.4 8.3-35.8 23.5-47.5 33.8-4.9 4.3-28.1 27.6-31.4 31.6-33.8 40.4-53.5 84.3-57.8 128.3-3.6 38.1 6 77.1 26.3 107 26.5 38.8 71.2 61.9 122.4 63.3l5.5.1-.3 81.4-.3 81.4H269l.1-82.3c.1-45.2.1-82.7 0-83.3-.1-.7 1.6-1.5 3.6-1.8 18.1-3.2 41.1-10.3 102.8-31.3 25.6-8.8 53-16.8 54.4-15.9.4.3.6 48.7.5 107.5l-.2 107.1H481v-31.8c.1-41.9.8-187.5.9-188.4.1-.4 2-.6 4.4-.3 2.3.3 6.5.7 9.2.9 42.8 4 75.8 31.7 86.1 72.4 11 43.3-2.5 91.1-38.4 136.7-7.7 9.7-28 29.7-38.2 37.6-30.4 23.5-63 39.4-98.5 47.9-12.8 3.1-13.6 3.3-26 5.2-13.1 2-53.5 1.6-65.3-.7-.9-.1-5.6-1-10.3-1.9-37.5-7-76.8-24.9-107.9-48.9-12.4-9.7-26.1-22.7-35.3-33.7-3.9-4.7-7.4-8.9-7.8-9.4-.9-1-40.9 28.7-40.9 30.4 0 1.2 22.9 26.7 30.2 33.5 11.4 10.7 13.8 12.8 25.2 21.5 30.5 23.1 67.8 41.7 102.6 51 2.5.7 5.2 1.4 6 1.6 4.8 1.4 30.4 6.4 35.3 6.9 3.2.4 6.8.9 8 1.2 3.9.9 48 1.1 54.8.2 3.7-.4 8.9-1 11.5-1.3 7.1-.8 12.7-1.6 14.4-2.1.8-.2 3.1-.7 5-1 16.5-2.8 45.5-11.9 63.5-20 36.2-16.2 65.6-36.3 92.6-63.4 32.8-32.9 56.5-71.8 66.8-109.9 7.7-28 9.2-49.5 5.5-77.7-.2-2.2-1.4-8-2.6-12.9-15.3-65.7-68.5-109.8-137.7-114.2-4.7-.3-9.5-.7-10.5-.8-1.9-.3-2-1.9-1.7-81.4l.2-81.2H431v166.6l-16.6 3.8c-16.4 3.7-40.3 11.3-88.4 27.8-20.6 7.1-52.8 16.8-55.8 16.8-.5 0-.8-48.4-.6-107.5l.2-107.5H219v34.7c-.1 42.4-.7 183.4-.9 184.9-.1.7-2 1-5.3.8-4.5-.3-15.2-1.5-16.8-1.9-.3 0-2.3-.4-4.5-.9-12.1-2.4-29.4-10.3-39.6-18.1-31.1-24-44.4-68-33.8-112.5 8-33.7 26.7-65.7 54.9-94.1 31.4-31.6 67.5-52.9 111.5-65.8 8.2-2.3 29.1-6.6 38.5-7.8 12.3-1.5 48.5-.9 61 1 15.9 2.5 40.3 8.7 49.5 12.6 1.1.5 5.2 2.1 9 3.6 19 7.6 42.5 21 59.6 34.1 11.9 9.2 32.4 28.8 38.9 37.4 2.5 3.2 5 6.1 5.6 6.4.8.3 36.5-26.2 40.1-29.8 1.8-1.8-30.7-36.1-45.7-48.2-9.4-7.6-23.1-17.4-33.5-24-34.6-22-79.5-38-120-42.9-2.7-.4-6.1-.9-7.5-1.1-2.9-.6-48.5-1.5-49.1-1z"/></svg>