<?xml version="1.0" encoding="UTF-8"?>
<svg id="SVGRoot" width="128px" height="128px" version="1.1" viewBox="0 0 128 128" xmlns="http://www.w3.org/2000/svg" xmlns:cc="http://creativecommons.org/ns#" xmlns:dc="http://purl.org/dc/elements/1.1/" xmlns:rdf="http://www.w3.org/1999/02/22-rdf-syntax-ns#">
 <metadata>
  <rdf:RDF>
   <cc:Work rdf:about="">
    <dc:format>image/svg+xml</dc:format>
    <dc:type rdf:resource="http://purl.org/dc/dcmitype/StillImage"/>
    <dc:title/>
   </cc:Work>
  </rdf:RDF>
 </metadata>
 <path d="m31.076 113.39c9.6796 6.453 21.29 9.9685 32.924 9.9685s23.244-3.5154 32.924-9.9685c16.179-10.786 26.43-29.941 26.43-49.385s-10.252-38.6-26.43-49.385c-9.6796-6.453-21.29-9.9685-32.924-9.9685s-23.244 3.5154-32.924 9.9685c-16.179 10.786-26.43 29.941-26.43 49.385s10.252 38.6 26.43 49.385z" fill="#212121" stroke="#000" stroke-width="3.2924"/>
 <text font-family="Roboto" font-size="40px" letter-spacing="0px" word-spacing="0px" style="line-height:1.25;shape-inside:url(#rect30);white-space:pre" xml:space="preserve"/>
 <g transform="matrix(3.2179 .0019023 -.0039019 1.6453 402.06 -9.8386)" stroke="#ff5722" stroke-width="2.2599">
  <path d="m-100 65v-40m-10 0v40m15.207-40.023c-2.3994-6.1259-6.3012-9.8922-10.243-9.8876-3.9422 0.0046-7.8348 3.7798-10.219 9.9113-1.1406 2.9329-1.9555 6.4459-2.0448 10.13-0.0447 1.8418 0.0941 3.708 0.4401 5.4246 0.34604 1.7166 0.90207 3.2796 1.629 4.4566 0.68956 1.1165 1.5224 1.8721 2.3917 2.2873 0.86924 0.41527 1.7747 0.49718 2.6659 0.35112 1.7824-0.29211 3.4897-1.4763 5.1738-2.6503s3.3914-2.3582 5.1738-2.6503c0.89118-0.14605 1.7966-0.06415 2.6659 0.35112s1.7021 1.1708 2.3917 2.2873c0.7269 1.177 1.2829 2.74 1.629 4.4566 0.34604 1.7166 0.48475 3.5828 0.4401 5.4246-0.08931 3.6837-0.90417 7.1966-2.0448 10.13-2.3846 6.1314-6.2772 9.9067-10.219 9.9113-3.9422 0.0046-7.8439-3.7617-10.243-9.8876" fill="none" stroke="#ff5722" stroke-width="2.2599"/>
 </g>
</svg>
