<svg version="1.0" viewBox="0 0 700 700" xmlns="http://www.w3.org/2000/svg"><path d="M324.5 1C265 7.1 208.6 30 162 67c-12.5 9.9-34.9 32.2-44.4 44-35.5 44.5-53.8 92.2-53.9 140.5 0 18.9 1.5 30 6.4 47.5 3.9 13.7 14.9 35.9 23.3 47.1 8.3 10.9 23.9 25.9 34.8 33.2 21.8 14.6 50.9 24.4 78 26.4l8.8.6V566h54l.2-81.7.3-81.7 3-.8c1.7-.4 9.7-2.4 18-4.3 15.2-3.8 40.6-11.9 82.5-26.4 22.9-8 46.7-15.3 54.3-16.7l3.7-.6V566h54V457.7c0-59.6.2-108.6.5-108.8.9-1 16.3 1.2 25.5 3.7 34.5 9.1 58.3 33.1 67.8 68.3 2.3 8.6 2.5 11.5 2.6 27.1 0 14.3-.4 19.3-2.2 27.3-4.8 21.7-13.6 42.1-27 62.2-26.8 40.4-66.9 72.2-114.6 90.9-41.6 16.4-88.9 20.9-132.4 12.5-53.2-10.3-105.2-40.1-139.4-79.8-5-5.8-9.5-10.7-9.9-10.9-.9-.4-42.9 31.6-42.9 32.6 0 .4 4.4 5.9 9.8 12.2 43 50.3 104.5 86 171.2 99.4 19.7 4 31.4 5 56 5 20.1 0 27.2-.4 39.5-2.2 34.9-5.1 65.5-14.9 97-31 62.4-31.9 112.2-85.2 135.9-145.5 9.5-24 13.9-47 13.9-72.7 0-27.4-4.7-48-16.3-71.5-8.3-16.8-16.3-27.7-29.8-40.6-25-24-59.6-39-96.4-41.6l-8.8-.6V134h-54l-.2 81.7-.3 81.8-5.5 1.3c-19.7 4.4-38.1 9.8-63.5 18.5-62.9 21.4-86 28.7-91 28.7-1.3 0-1.5-13-1.5-106V134h-54v108.3c0 59.6-.2 108.6-.5 108.8-.9 1-16.1-1.2-25.5-3.7-34.4-9-58.3-33.1-67.8-68.3-2.2-8.5-2.5-11.5-2.6-27.1 0-14.4.4-19.2 2.2-27.3 4.9-22 13.5-42 27-62.2 36.3-54.6 95.5-92.4 163.9-104.7 11.1-2 16.1-2.3 38.3-2.3 28.5 0 39.4 1.4 63.5 8 46.2 12.7 90.7 40.5 120.8 75.5 5 5.8 9.4 10.6 9.8 10.8.8.3 37.1-26.9 41.3-30.9 1.9-1.7 1.8-1.9-4-9.1-8.8-11-31.6-33.4-43.4-42.8-43.1-34.3-96.2-57.1-150-64.5C374.3.6 337.2-.2 324.5 1z"/></svg>
