<?xml version="1.0" encoding="UTF-8"?>
<svg width="2670.5" height="512" version="1.1" viewBox="0 0 706.57 135.47" xmlns="http://www.w3.org/2000/svg">
 <path d="m163.76 92.266q5.8228 0 8.4774-1.9695t2.6545-5.566q0-2.1408-0.94193-3.6821-0.8563-1.5413-2.5689-2.7402-1.627-1.2844-4.0246-2.312-2.3976-1.1132-5.4803-2.1408-3.0827-1.1132-5.9941-2.3976-2.8258-1.3701-5.0522-3.3396-2.1408-1.9695-3.5108-4.7096-1.2844-2.7402-1.2844-6.5935 0-8.0492 5.566-12.588 5.566-4.624 15.156-4.624 5.566 0 9.8474 1.2844 4.3671 1.1988 6.8504 2.6545l-3.3396 8.7343q-2.9114-1.627-6.4222-2.4833-3.4252-0.8563-7.1073-0.8563-4.3671 0-6.8504 1.7982-2.3976 1.7982-2.3976 5.0522 0 1.9695 0.77067 3.4252 0.8563 1.3701 2.312 2.4833 1.5413 1.1132 3.5108 2.0551 2.0551 0.94193 4.4528 1.7982 4.1959 1.5413 7.4498 3.1683 3.3396 1.5413 5.566 3.7677 2.312 2.1408 3.5108 5.1378 1.1988 2.9114 1.1988 7.1073 0 8.0492-5.7372 12.502-5.6516 4.3671-16.612 4.3671-3.6821 0-6.7648-0.51378-2.997-0.42815-5.3947-1.1132-2.312-0.68504-4.0246-1.3701-1.7126-0.77067-2.7402-1.3701l3.1683-8.8199q2.312 1.2844 6.251 2.5689t9.5049 1.2844zm41.788 8.0492h-10.361v-44.784h10.361zm1.1132-57.886q0 2.9114-1.8839 4.624t-4.4528 1.7126q-2.6545 0-4.5384-1.7126t-1.8839-4.624q0-2.997 1.8839-4.7096t4.5384-1.7126q2.5689 0 4.4528 1.7126t1.8839 4.7096zm27.658 58.742q-4.624-0.0856-7.7067-1.0276-2.997-0.94193-4.7953-2.6545-1.7982-1.7982-2.5689-4.3671-0.68504-2.6545-0.68504-5.9941v-51.549l10.361-1.7126v51.292q0 1.8839 0.25689 3.1683 0.34252 1.2844 1.1132 2.2264 0.77067 0.8563 2.0551 1.3701 1.3701 0.42815 3.4252 0.68504zm25.603-8.1348q4.7953 0 7.2786-0.51378v-11.474q-0.8563-0.25689-2.4833-0.51378t-3.5965-0.25689q-1.7126 0-3.5108 0.25689-1.7126 0.25689-3.1683 0.94193-1.3701 0.68504-2.2264 1.9695-0.8563 1.1988-0.8563 3.0827 0 3.6821 2.312 5.1378 2.312 1.3701 6.251 1.3701zm-0.8563-38.619q5.1378 0 8.6486 1.2844t5.566 3.5965q2.1408 2.312 2.997 5.6516 0.94193 3.2539 0.94193 7.1929v27.145q-2.3976 0.51378-7.2786 1.1988-4.7953 0.77067-10.875 0.77067-4.0246 0-7.3642-0.77067-3.3396-0.77067-5.7372-2.4833-2.312-1.7126-3.6821-4.4528-1.2844-2.7402-1.2844-6.7648 0-3.8534 1.4557-6.5079 1.5413-2.6545 4.1102-4.2815 2.5689-1.7126 5.9085-2.3976 3.4252-0.77067 7.1073-0.77067 1.7126 0 3.5965 0.25689 1.8839 0.17126 4.0246 0.68504v-1.7126q0-1.7982-0.42815-3.4252t-1.5413-2.8258q-1.0276-1.2844-2.8258-1.9695-1.7126-0.68504-4.3671-0.68504-3.5965 0-6.5935 0.51378t-4.8809 1.1988l-1.2844-8.3917q1.9695-0.68504 5.7372-1.3701t8.0492-0.68504zm42.044 38.448q4.1102 0 5.9941-0.94193 1.8839-1.0276 1.8839-3.4252 0-2.2264-2.0551-3.6821-1.9695-1.4557-6.5935-3.1683-2.8258-1.0276-5.2234-2.1408-2.312-1.1988-4.0246-2.7402t-2.7402-3.6821q-0.94193-2.2264-0.94193-5.3947 0-6.1654 4.5384-9.6762 4.5384-3.5965 12.331-3.5965 3.939 0 7.5354 0.77067 3.5965 0.68504 5.3947 1.3701l-1.8839 8.3917q-1.7126-0.77067-4.3671-1.3701-2.6545-0.68504-6.1654-0.68504-3.1683 0-5.1378 1.1132-1.9695 1.0276-1.9695 3.2539 0 1.1132 0.34252 1.9695 0.42815 0.8563 1.3701 1.627 0.94193 0.68504 2.4833 1.4557 1.5413 0.68504 3.7677 1.4557 3.6821 1.3701 6.251 2.7402 2.5689 1.2844 4.1959 2.997 1.7126 1.627 2.4833 3.7677t0.77067 5.1378q0 6.4222-4.7953 9.7618-4.7096 3.2539-13.53 3.2539-5.9085 0-9.5049-1.0276-3.5965-0.94193-5.0522-1.5413l1.7982-8.6486q2.312 0.94193 5.4803 1.7982 3.2539 0.8563 7.3642 0.8563zm84.945-51.892h10.789v59.342h-10.789v-26.288h-25.775v26.288h-10.789v-59.342h10.789v23.72h25.775zm22.007 37.163q0-5.9085 1.7126-10.361 1.7982-4.4528 4.7096-7.3642 2.9114-2.997 6.6791-4.4528 3.7677-1.5413 7.7067-1.5413 9.248 0 14.386 5.7372 5.2234 5.7372 5.2234 17.126 0 0.8563-0.0856 1.9695 0 1.0276-0.0856 1.8839h-29.542q0.42815 5.3947 3.7677 8.3917 3.4252 2.9114 9.8474 2.9114 3.7677 0 6.8504-0.68504 3.1683-0.68504 4.9665-1.4557l1.3701 8.4774q-0.8563 0.42815-2.3976 0.94193-1.4557 0.42815-3.4252 0.77067-1.8839 0.42815-4.1102 0.68504t-4.5384 0.25689q-5.9085 0-10.276-1.7126-4.3671-1.7982-7.1929-4.8809-2.8258-3.1683-4.1959-7.3642-1.3701-4.2815-1.3701-9.3337zm30.056-4.624q0-2.1408-0.59941-4.0246-0.59941-1.9695-1.7982-3.3396-1.1132-1.4557-2.8258-2.2264-1.627-0.8563-3.939-0.8563-2.3976 0-4.1959 0.94193-1.7982 0.8563-3.0827 2.312-1.1988 1.4557-1.8839 3.3396t-0.94193 3.8534zm21.322-16.527q2.997-0.8563 7.7923-1.627t10.618-0.77067q5.4803 0 9.1624 1.5413 3.6821 1.4557 5.8228 4.1959 2.2264 2.6545 3.0827 6.5079 0.94193 3.7677 0.94193 8.3061v25.175h-10.361v-23.548q0-3.5965-0.51378-6.0797-0.42815-2.5689-1.5413-4.1102-1.0276-1.627-2.9114-2.312-1.7982-0.77067-4.4528-0.77067-1.9695 0-4.1102 0.25689t-3.1683 0.42815v36.136h-10.361zm75.611 7.878q-1.2844-0.42815-3.5965-0.8563-2.2264-0.51378-5.2234-0.51378-1.7126 0-3.6821 0.34252-1.8839 0.34252-2.6545 0.59941v35.879h-10.361v-42.644q2.997-1.1132 7.4498-2.0551 4.5384-1.0276 10.019-1.0276 1.0276 0 2.3976 0.17126 1.3701 0.0856 2.7402 0.34252 1.3701 0.17126 2.6545 0.51378 1.2844 0.25689 2.0551 0.51378zm19.438 35.451h-10.361v-44.784h10.361zm1.1132-57.886q0 2.9114-1.8839 4.624t-4.4528 1.7126q-2.6545 0-4.5384-1.7126t-1.8839-4.624q0-2.997 1.8839-4.7096t4.5384-1.7126q2.5689 0 4.4528 1.7126t1.8839 4.7096zm20.209 35.708q0 6.5079 2.5689 10.361 2.6545 3.8534 8.3061 3.8534 2.5689 0 4.7953-0.77067 2.312-0.8563 3.6821-1.7982v-25.603q-1.1132-0.25689-2.8258-0.42815-1.627-0.25689-4.2815-0.25689-5.7372 0-8.9912 3.939-3.2539 3.8534-3.2539 10.704zm-10.618-0.17126q0-5.3091 1.5413-9.5906 1.627-4.3671 4.5384-7.3642 2.997-3.0827 7.1929-4.7096 4.1959-1.7126 9.5049-1.7126t9.9331 0.77067 7.6211 1.627v59.17h-10.361v-17.383q-1.7982 0.94193-4.4528 1.7126-2.5689 0.77067-5.7372 0.77067-4.7953 0-8.4774-1.627-3.6821-1.7126-6.1654-4.7953t-3.8534-7.3642q-1.2844-4.2815-1.2844-9.5049zm90.254 20.979q-2.997 0.77067-7.7923 1.5413-4.7953 0.8563-10.532 0.8563-5.3947 0-9.0768-1.5413-3.5965-1.5413-5.8228-4.2815-2.1408-2.7402-3.0827-6.5079-0.94193-3.8534-0.94193-8.3917v-25.09h10.361v23.463q0 7.1929 2.0551 10.276 2.1408 3.0827 7.3642 3.0827 1.8839 0 3.939-0.17126 2.1408-0.17126 3.1683-0.42815v-36.221h10.361zm10.704-20.808q0-5.9085 1.7126-10.361 1.7982-4.4528 4.7096-7.3642 2.9114-2.997 6.6791-4.4528 3.7677-1.5413 7.7067-1.5413 9.248 0 14.386 5.7372 5.2234 5.7372 5.2234 17.126 0 0.8563-0.0856 1.9695 0 1.0276-0.0856 1.8839h-29.542q0.42815 5.3947 3.7677 8.3917 3.4252 2.9114 9.8474 2.9114 3.7677 0 6.8504-0.68504 3.1683-0.68504 4.9665-1.4557l1.3701 8.4774q-0.8563 0.42815-2.3976 0.94193-1.4557 0.42815-3.4252 0.77067-1.8839 0.42815-4.1102 0.68504t-4.5384 0.25689q-5.9085 0-10.276-1.7126-4.3671-1.7982-7.1929-4.8809-2.8258-3.1683-4.1959-7.3642-1.3701-4.2815-1.3701-9.3337zm30.056-4.624q0-2.1408-0.59941-4.0246-0.59941-1.9695-1.7982-3.3396-1.1132-1.4557-2.8258-2.2264-1.627-0.8563-3.939-0.8563-2.3976 0-4.1959 0.94193-1.7982 0.8563-3.0827 2.312-1.1988 1.4557-1.8839 3.3396t-0.94193 3.8534z" fill="#fff" aria-label="Silas Henrique"/>
 <path d="m55.484 0c-17.817 1.1073e-4 -35.159 8.5821-45.969 22.748-8.2989 10.875-11.08 22.967-8.6914 33.336s10.263 18.844 21.389 21.57c2.3651 0.57962 4.7386 0.83992 7.0977 0.94141v30.912h10.584v-31.705c6.1876-1.1259 11.944-3.1564 17.363-5.084 4.7458-1.6879 9.3295-3.2455 13.814-4.248v41.037h10.584v-42.08c1.5726 0.09306 3.1105 0.30386 4.5801 0.66406 7.5144 1.8416 12.016 6.8154 13.594 13.666 1.5781 6.8506-0.08445 15.753-6.791 24.541-8.717 11.423-23.189 18.584-37.555 18.584-14.365 8e-5 -28.84-7.161-37.557-18.584l-8.4121 6.4199c10.81 14.166 28.152 22.748 45.969 22.748 17.817 0 35.159-8.5821 45.969-22.748 8.299-10.875 11.08-22.968 8.6914-33.338-2.3887-10.369-10.265-18.842-21.391-21.568-2.3651-0.57969-4.7386-0.83992-7.0977-0.94141v-30.912h-10.584v31.703c-6.1876 1.1259-11.942 3.1584-17.361 5.0859-4.7463 1.688-9.331 3.2455-13.816 4.248v-41.037h-10.584v42.08c-1.5726-0.09307-3.1085-0.30389-4.5781-0.66406-7.5145-1.8416-12.018-6.8154-13.596-13.666-1.5781-6.8506 0.08452-15.753 6.791-24.541 8.717-11.423 23.191-18.584 37.557-18.584 14.365 0 28.838 7.161 37.555 18.584l8.4141-6.4199c-10.81-14.166-28.152-22.748-45.969-22.748z" fill="#f45d22"/>
</svg>
