<?xml version="1.0" encoding="UTF-8"?>
<svg width="2711.7" height="512" version="1.1" viewBox="0 0 717.48 135.47" xmlns="http://www.w3.org/2000/svg">
 <path d="m181.18 84.405q0-4.1789-2.9601-6.4425-2.9165-2.2636-10.578-4.5707-7.6614-2.3071-12.189-5.1366-8.6626-5.4413-8.6626-14.191 0-7.6614 6.2248-12.624 6.2684-4.9625 16.237-4.9625 6.6166 0 11.797 2.4377 5.1801 2.4377 8.1402 6.9649 2.9601 4.4836 2.9601 9.9685h-10.97q0-4.9625-3.1342-7.7484-3.0907-2.8295-8.8802-2.8295-5.3978 0-8.4014 2.3071-2.9601 2.3071-2.9601 6.4425 0 3.4824 3.2212 5.8331 3.2212 2.3071 10.621 4.5272 7.4002 2.1765 11.884 5.006 4.4836 2.7859 6.5731 6.4425 2.0895 3.613 2.0895 8.4884 0 7.9225-6.0942 12.624-6.0507 4.6578-16.454 4.6578-6.8778 0-12.667-2.5248-5.746-2.5683-8.9673-7.0519-3.1777-4.4836-3.1777-10.447h11.013q0 5.3978 3.5695 8.3578 3.5695 2.9601 10.23 2.9601 5.746 0 8.619-2.3071 2.9165-2.3506 2.9165-6.1813zm30.907 16.324h-10.578v-47.1h10.578zm-11.231-59.332q0-2.4377 1.5236-4.0483 1.5671-1.6106 4.4401-1.6106 2.873 0 4.4401 1.6106 1.5671 1.6106 1.5671 4.0483 0 2.3942-1.5671 4.0048-1.5671 1.5671-4.4401 1.5671-2.873 0-4.4401-1.5671-1.5236-1.6106-1.5236-4.0048zm33.997 59.332h-10.578v-66.863h10.578zm39.656 0q-0.69649-1.3495-1.2188-4.3966-5.0495 5.2672-12.363 5.2672-7.0955 0-11.579-4.0483-4.4836-4.0483-4.4836-10.012 0-7.5308 5.5719-11.536 5.6154-4.0483 16.019-4.0483h6.486v-3.0907q0-3.6566-2.0459-5.8331-2.0459-2.22-6.2248-2.22-3.613 0-5.9201 1.8283-2.3071 1.7848-2.3071 4.5707h-10.578q0-3.8742 2.5683-7.226 2.5683-3.3954 6.9649-5.3107 4.4401-1.9153 9.8814-1.9153 8.2708 0 13.19 4.1789 4.9189 4.1354 5.0495 11.666v21.243q0 6.3554 1.7848 10.143v0.74002zm-11.623-7.6178q3.1342 0 5.8766-1.5236 2.786-1.5236 4.1789-4.0919v-8.8802h-5.7025q-5.8766 0-8.8367 2.0459t-2.9601 5.7896q0 3.0471 2.0024 4.8754 2.0459 1.7847 5.4413 1.7847zm58.113-5.1801q0-2.8295-2.3506-4.3095-2.3071-1.48-7.7049-2.6118t-9.0108-2.873q-7.9225-3.8307-7.9225-11.1 0-6.0943 5.1366-10.186 5.1366-4.0918 13.059-4.0918 8.4449 0 13.625 4.1789 5.2236 4.1789 5.2236 10.839h-10.578q0-3.0471-2.2636-5.0495-2.2636-2.0459-6.0072-2.0459-3.4824 0-5.7025 1.6106-2.1765 1.6106-2.1765 4.3095 0 2.4377 2.0459 3.7872 2.0459 1.3494 8.2708 2.7424 6.2248 1.3494 9.7508 3.2648 3.5695 1.8718 5.2672 4.5272 1.7412 2.6554 1.7412 6.4425 0 6.3554-5.2672 10.317-5.2672 3.9177-13.799 3.9177-5.7895 0-10.317-2.0895-4.5272-2.0895-7.0519-5.746-2.5248-3.6566-2.5248-7.879h10.273q0.21765 3.7436 2.8295 5.7896 2.6118 2.0024 6.9213 2.0024 4.1789 0 6.3554-1.5671 2.1765-1.6106 2.1765-4.1789zm93.155 12.798h-10.97v-28.164h-28.338v28.164h-11.013v-63.38h11.013v26.379h28.338v-26.379h10.97zm32.735 0.87061q-10.056 0-16.324-6.3119-6.2248-6.3554-6.2248-16.89v-1.3059q0-7.0519 2.6989-12.58 2.7424-5.5719 7.6614-8.6626 4.9189-3.0907 10.97-3.0907 9.6202 0 14.844 6.1378 5.2672 6.1378 5.2672 17.369v4.266h-30.776q0.47883 5.8331 3.8742 9.2284 3.4389 3.3954 8.619 3.3954 7.2696 0 11.84-5.8766l5.7025 5.4413q-2.8295 4.2224-7.5743 6.5731-4.7013 2.3071-10.578 2.3071zm-1.2624-40.353q-4.353 0-7.0519 3.0471-2.6554 3.0471-3.3954 8.4884h20.155v-0.78355q-0.34825-5.3107-2.8295-8.0096-2.4812-2.7424-6.8778-2.7424zm38.176-7.6178 0.30472 5.4413q5.2236-6.3119 13.712-6.3119 14.713 0 14.974 16.846v31.124h-10.578v-30.515q0-4.4836-1.9589-6.6166-1.9153-2.1765-6.3119-2.1765-6.399 0-9.5332 5.7895v33.518h-10.578v-47.1zm64.425 9.6638q-2.0895-0.34825-4.3095-0.34825-7.2696 0-9.7943 5.5719v32.213h-10.578v-47.1h10.099l0.26118 5.2672q3.8307-6.1378 10.621-6.1378 2.2636 0 3.7436 0.60942zm17.935 37.436h-10.578v-47.1h10.578zm-11.231-59.332q0-2.4377 1.5236-4.0483 1.5671-1.6106 4.4401-1.6106t4.4401 1.6106q1.5671 1.6106 1.5671 4.0483 0 2.3942-1.5671 4.0048-1.5671 1.5671-4.4401 1.5671t-4.4401-1.5671q-1.5236-1.6106-1.5236-4.0048zm20.764 35.39q0-11.057 5.0495-17.543t13.669-6.486q7.879 0 12.493 5.5284l0.60943-4.6578h9.4026v65.209h-10.578v-22.113q-4.6142 4.8754-12.014 4.8754-8.4449 0-13.538-6.5731-5.0931-6.6166-5.0931-18.239zm10.578 0.91414q0 7.226 2.8295 11.361 2.873 4.0918 7.9225 4.0918 6.2684 0 9.3155-5.3542v-21.417q-3.0471-5.1366-9.2284-5.1366-5.0495 0-7.9661 4.0483-2.873 4.0483-2.873 12.406zm70.563 18.413q-4.6578 5.4848-13.233 5.4848-7.6614 0-11.623-4.4836-3.9177-4.4836-3.9177-12.972v-30.515h10.578v30.384q0 8.9673 7.4437 8.9673 7.7049 0 10.404-5.5284v-33.823h10.578v47.1h-9.9685zm41.746 5.4848q-10.056 0-16.324-6.3119-6.2248-6.3554-6.2248-16.89v-1.3059q0-7.0519 2.6989-12.58 2.7424-5.5719 7.6614-8.6626 4.9189-3.0907 10.97-3.0907 9.6202 0 14.844 6.1378 5.2672 6.1378 5.2672 17.369v4.266h-30.776q0.47884 5.8331 3.8742 9.2284 3.4389 3.3954 8.619 3.3954 7.2696 0 11.84-5.8766l5.7025 5.4413q-2.8295 4.2224-7.5743 6.5731-4.7013 2.3071-10.578 2.3071zm-1.2624-40.353q-4.353 0-7.0519 3.0471-2.6554 3.0471-3.3954 8.4884h20.155v-0.78355q-0.34825-5.3107-2.8295-8.0096-2.4812-2.7424-6.8778-2.7424z" fill="#fff" aria-label="Silas Henrique"/>
 <path d="m55.484 0c-17.817 1.1073e-4 -35.159 8.5821-45.969 22.748-8.2989 10.875-11.08 22.967-8.6914 33.336s10.263 18.844 21.389 21.57c2.3651 0.57962 4.7386 0.83992 7.0977 0.94141v30.912h10.584v-31.705c6.1876-1.1259 11.944-3.1564 17.363-5.084 4.7458-1.6879 9.3295-3.2455 13.814-4.248v41.037h10.584v-42.08c1.5726 0.09306 3.1105 0.30386 4.5801 0.66406 7.5144 1.8416 12.016 6.8154 13.594 13.666 1.5781 6.8506-0.08445 15.753-6.791 24.541-8.717 11.423-23.189 18.584-37.555 18.584-14.365 8e-5 -28.84-7.161-37.557-18.584l-8.4121 6.4199c10.81 14.166 28.152 22.748 45.969 22.748 17.817 0 35.159-8.5821 45.969-22.748 8.299-10.875 11.08-22.968 8.6914-33.338-2.3887-10.369-10.265-18.842-21.391-21.568-2.3651-0.57969-4.7386-0.83992-7.0977-0.94141v-30.912h-10.584v31.703c-6.1876 1.1259-11.942 3.1584-17.361 5.0859-4.7463 1.688-9.331 3.2455-13.816 4.248v-41.037h-10.584v42.08c-1.5726-0.09307-3.1085-0.30389-4.5781-0.66406-7.5145-1.8416-12.018-6.8154-13.596-13.666-1.5781-6.8506 0.08452-15.753 6.791-24.541 8.717-11.423 23.191-18.584 37.557-18.584 14.365 0 28.838 7.161 37.555 18.584l8.4141-6.4199c-10.81-14.166-28.152-22.748-45.969-22.748z" fill="#f45d22"/>
</svg>
