<?xml version="1.0" encoding="UTF-8"?>
<svg id="SVGRoot" width="512" height="512" version="1.1" viewBox="0 0 512 512" xml:space="preserve" xmlns="http://www.w3.org/2000/svg"><path d="m334.92 98.109v315.78m-157.84-315.78v315.78m236.76-315.78c-36.902-48.357-97.024-78.109-157.84-78.109-60.817 3.47e-4 -120.94 29.752-157.84 78.109-56.714 74.319-33.597 158.69 36.854 175.96 13.402 3.2845 27.369 3.939 41.12 2.7948 27.502-2.2887 53.864-11.616 79.867-20.864 26.002-9.2479 52.365-18.576 79.867-20.864 13.751-1.1444 27.718-0.48999 41.12 2.7949 70.45 17.266 93.568 101.64 36.854 175.96-36.902 48.357-97.024 78.11-157.84 78.11-60.817 3.3e-4 -120.94-29.752-157.84-78.109" fill="none" stroke="#f45d22" stroke-linejoin="round" stroke-miterlimit="168.2" stroke-width="40" style="paint-order:markers stroke fill"/></svg>
