<svg viewBox="0 0 512 512" xmlns="http://www.w3.org/2000/svg"><path fill="none" stroke="#f45d22" stroke-width="40" d="M334.92 98.109v315.78M177.08 98.109v315.78m236.76-315.78C376.938 49.752 316.816 20 256 20c-60.817 0-120.94 29.752-157.84 78.109-56.714 74.319-33.597 158.69 36.854 175.96 13.402 3.284 27.369 3.939 41.12 2.795 27.502-2.289 53.864-11.616 79.867-20.864 26.002-9.248 52.365-18.576 79.867-20.864 13.751-1.145 27.718-.49 41.12 2.795 70.45 17.266 93.568 101.64 36.854 175.96C376.94 462.248 316.818 492 256.002 492c-60.817 0-120.94-29.752-157.84-78.11"/></svg>