<?xml version="1.0" encoding="UTF-8"?>
<svg id="SVGRoot" width="128px" height="128px" version="1.1" viewBox="0 0 128 128" xmlns="http://www.w3.org/2000/svg" xmlns:cc="http://creativecommons.org/ns#" xmlns:dc="http://purl.org/dc/elements/1.1/" xmlns:rdf="http://www.w3.org/1999/02/22-rdf-syntax-ns#">
 <metadata>
  <rdf:RDF>
   <cc:Work rdf:about="">
    <dc:format>image/svg+xml</dc:format>
    <dc:type rdf:resource="http://purl.org/dc/dcmitype/StillImage"/>
    <dc:title/>
   </cc:Work>
  </rdf:RDF>
 </metadata>
 <path d="m64 0c-16.815 9.3422e-5 -33.199 8.1066-43.402 21.473-4.8778 6.39-8.5082 14.178-8.9316 22.684-0.21223 4.2583 0.3964 8.61 1.9961 12.693 1.6039 4.0935 4.1839 7.8429 7.6602 10.729 3.2942 2.7346 7.1651 4.5099 11.135 5.4824 2.4876 0.60945 4.9841 0.82016 7.4648 0.875l-0.07031 29.729 9.2988 0.0215 0.07227-30.504c5.8006-1.068 11.214-2.9805 16.334-4.8008 4.5176-1.6062 8.8978-3.0976 13.197-4.0566l-0.09375 39.361 9.3008 0.0234 0.0957-40.369c1.8094 0.05373 3.5896 0.21832 5.2734 0.63086 2.7734 0.67948 5.3607 1.9077 7.4082 3.6074 2.1548 1.7887 3.8756 4.2444 4.9414 6.9648 1.0697 2.7303 1.5191 5.7866 1.3672 8.8379-0.30435 6.1127-3.032 12.262-7.0352 17.506-8.3633 10.956-22.228 17.814-36.012 17.814-13.783 8e-5 -27.648-6.8583-36.012-17.814l-7.3906 5.6406c10.203 13.366 26.587 21.473 43.402 21.473s33.199-8.1066 43.402-21.473c4.8778-6.39 8.5082-14.178 8.9316-22.684 0.21203-4.2579-0.39609-8.6097-1.9961-12.693-1.6039-4.0936-4.1839-7.8429-7.6602-10.729-3.2942-2.7346-7.1651-4.5099-11.135-5.4824-2.4876-0.60945-4.9841-0.82016-7.4648-0.875l0.07031-29.729-9.2988-0.02148-0.07227 30.504c-5.8006 1.068-11.214 2.9805-16.334 4.8008-4.5176 1.6062-8.8978 3.0976-13.197 4.0566l0.09375-39.361-9.2988-0.02344-0.0957 40.369c-1.81-0.05363-3.5909-0.21817-5.2754-0.63086-2.7734-0.67947-5.3607-1.9077-7.4082-3.6074-2.1548-1.7887-3.8755-4.2444-4.9414-6.9648-1.0698-2.7306-1.5192-5.787-1.3672-8.8379 0.30433-6.1127 3.032-12.262 7.0352-17.506 8.3633-10.956 22.228-17.814 36.012-17.814 13.783 0 27.648 6.8583 36.012 17.814l7.3906-5.6406c-10.203-13.366-26.587-21.473-43.402-21.473z" color="#000000" color-rendering="auto" dominant-baseline="auto" fill="#f45d22" image-rendering="auto" shape-rendering="auto" solid-color="#000000" stop-color="#000000" style="font-feature-settings:normal;font-variant-alternates:normal;font-variant-caps:normal;font-variant-east-asian:normal;font-variant-ligatures:normal;font-variant-numeric:normal;font-variant-position:normal;font-variation-settings:normal;inline-size:0;isolation:auto;mix-blend-mode:normal;shape-margin:0;shape-padding:0;text-decoration-color:#000000;text-decoration-line:none;text-decoration-style:solid;text-indent:0;text-orientation:mixed;text-transform:none;white-space:normal"/>
</svg>
